<svg width="1440" height="1024" viewBox="0 0 1440 1024" fill="none" xmlns="http://www.w3.org/2000/svg">
<g clip-path="url(#clip0_0_1)">
<rect width="1440" height="1024" fill="#EFEFEF"/>
<path fill-rule="evenodd" clip-rule="evenodd" d="M462.944 5642.26C709.172 5696.91 933.068 5880.87 1197.76 5787.25C1462.77 5693.51 1666.21 5226.29 1931.11 5122.96C2400.69 4939.79 2862.23 5335.52 3307.39 4964.34C3708.56 4629.85 4013.85 3927.11 4118.89 3298.81C4224.26 2668.63 3924.89 2191.51 3869.34 1603.31C3814.39 1021.46 4004.75 283.654 3791.76 -164.825C3578.94 -612.962 3070.24 -504.117 2742.67 -769.053C2391.89 -1052.76 2238.38 -1905.78 1789.54 -1784.2C1310.7 -1654.49 1079.97 -581.953 627.415 -196.057C239.682 134.566 -343.578 -312.628 -591.537 246.164C-884 905.25 -243.145 1571.88 -466.811 2269.85C-681.055 2938.43 -1687.78 2970.32 -1677.99 3636.56C-1667.48 4351.9 -763.935 3935.79 -436.04 4363.48C-256.061 4598.24 -453.555 5213.25 -280.69 5459.15C-109.442 5702.74 210.859 5586.32 462.944 5642.26Z" fill="url(#paint0_linear_0_1)"/>
</g>
<defs>
<linearGradient id="paint0_linear_0_1" x1="4269.12" y1="2800.09" x2="-1092.54" y2="1363.44" gradientUnits="userSpaceOnUse">
<stop stop-color="#FFD700"/>
<stop offset="1" stop-color="#FFD700" stop-opacity="0"/>
</linearGradient>
<clipPath id="clip0_0_1">
<rect width="1440" height="1024" fill="white"/>
</clipPath>
</defs>
</svg>
